<svg width="20" height="20" viewBox="0 0 20 20" fill="none" xmlns="http://www.w3.org/2000/svg">
<g clip-path="url(#clip0_419_597)">
<path d="M7.91672 17.4998C9.06672 18.6106 10.9334 18.6106 12.0834 17.4998M14.1667 11.504C14.1667 11.2156 14.1667 11.0715 14.2101 10.9431C14.3359 10.5698 14.6684 10.4256 15.0017 10.274C15.3751 10.1031 15.5617 10.0181 15.7476 10.0031C15.9576 9.98648 16.1684 10.0315 16.3484 10.1323C16.5867 10.2656 16.7534 10.5206 16.9234 10.7273C17.7092 11.6823 18.1026 12.1598 18.2459 12.6856C18.3626 13.1106 18.3626 13.5556 18.2459 13.9798C18.0367 14.7481 17.3742 15.3915 16.8834 15.9881C16.6326 16.2923 16.5067 16.4448 16.3484 16.534C16.1653 16.6355 15.9562 16.6805 15.7476 16.6631C15.5617 16.6481 15.3751 16.5631 15.0009 16.3923C14.6676 16.2406 14.3359 16.0965 14.2101 15.7231C14.1667 15.5948 14.1667 15.4506 14.1667 15.1631V11.504ZM5.83339 11.504C5.83339 11.1406 5.82339 10.8148 5.53005 10.5598C5.42339 10.4673 5.28172 10.4031 4.99922 10.274C4.62505 10.104 4.43839 10.0181 4.25255 10.0031C3.69672 9.95815 3.39755 10.3381 3.07755 10.7281C2.29089 11.6823 1.89755 12.1598 1.75339 12.6865C1.63754 13.1098 1.63754 13.5565 1.75339 13.9798C1.96339 14.7481 2.62672 15.3915 3.11672 15.9881C3.42589 16.3631 3.72172 16.7056 4.25255 16.6631C4.43839 16.6481 4.62505 16.5631 4.99922 16.3923C5.28255 16.2631 5.42339 16.199 5.53005 16.1065C5.82339 15.8515 5.83339 15.5256 5.83339 15.1623V11.504Z" stroke="#FF7E47" stroke-width="1.5" stroke-linecap="round" stroke-linejoin="round"/>
<path d="M1.66675 13.3332V9.99984C1.66675 5.39734 5.39758 1.6665 10.0001 1.6665C14.6026 1.6665 18.3334 5.39734 18.3334 9.99984V13.3332" stroke="#FF7E47" stroke-width="1.5" stroke-linecap="round" stroke-linejoin="round"/>
</g>
<defs>
<clipPath id="clip0_419_597">
<rect width="20" height="20" fill="white"/>
</clipPath>
</defs>
</svg>
