<svg width="20" height="20" viewBox="0 0 20 20" fill="none" xmlns="http://www.w3.org/2000/svg">
<path d="M1.66675 2.5V1.875C1.50099 1.875 1.34202 1.94085 1.22481 2.05806C1.1076 2.17527 1.04175 2.33424 1.04175 2.5H1.66675ZM10.8334 2.5H11.4584C11.4584 2.33424 11.3926 2.17527 11.2754 2.05806C11.1581 1.94085 10.9992 1.875 10.8334 1.875V2.5ZM10.8334 7.5V6.875C10.6677 6.875 10.5087 6.94085 10.3915 7.05806C10.2743 7.17527 10.2084 7.33424 10.2084 7.5H10.8334ZM1.66675 3.125H10.8334V1.875H1.66675V3.125ZM10.2084 2.5V15.8333H11.4584V2.5H10.2084ZM2.29175 14.1667V2.5H1.04175V14.1667H2.29175ZM10.8334 8.125H15.0001V6.875H10.8334V8.125ZM17.7084 10.8333V14.1667H18.9584V10.8333H17.7084ZM11.4584 15.8333V7.5H10.2084V15.8333H11.4584ZM15.7367 16.57C15.64 16.6668 15.5252 16.7435 15.3988 16.7959C15.2724 16.8482 15.1369 16.8752 15.0001 16.8752C14.8633 16.8752 14.7278 16.8482 14.6014 16.7959C14.475 16.7435 14.3601 16.6668 14.2634 16.57L13.3801 17.4533C13.8098 17.8831 14.3927 18.1245 15.0005 18.1245C15.6083 18.1245 16.1911 17.8831 16.6209 17.4533L15.7367 16.57ZM14.2634 15.0967C14.3601 14.9999 14.475 14.9232 14.6014 14.8708C14.7278 14.8184 14.8633 14.7915 15.0001 14.7915C15.1369 14.7915 15.2724 14.8184 15.3988 14.8708C15.5252 14.9232 15.64 14.9999 15.7367 15.0967L16.6201 14.2133C16.1903 13.7836 15.6074 13.5422 14.9997 13.5422C14.3919 13.5422 13.809 13.7836 13.3792 14.2133L14.2634 15.0967ZM5.73675 16.57C5.64002 16.6668 5.52517 16.7435 5.39877 16.7959C5.27237 16.8482 5.1369 16.8752 5.00008 16.8752C4.86326 16.8752 4.72779 16.8482 4.60139 16.7959C4.47499 16.7435 4.36015 16.6668 4.26341 16.57L3.38008 17.4533C3.80985 17.8831 4.39273 18.1245 5.0005 18.1245C5.60827 18.1245 6.19115 17.8831 6.62091 17.4533L5.73675 16.57ZM4.26341 15.0967C4.36015 14.9999 4.47499 14.9232 4.60139 14.8708C4.72779 14.8184 4.86326 14.7915 5.00008 14.7915C5.1369 14.7915 5.27237 14.8184 5.39877 14.8708C5.52517 14.9232 5.64002 14.9999 5.73675 15.0967L6.62008 14.2133C6.19031 13.7836 5.60743 13.5422 4.99966 13.5422C4.39189 13.5422 3.80902 13.7836 3.37925 14.2133L4.26341 15.0967ZM15.7367 15.0967C15.9401 15.3 16.0417 15.5658 16.0417 15.8333H17.2917C17.2917 15.2475 17.0676 14.66 16.6209 14.2125L15.7367 15.0967ZM16.0417 15.8333C16.0417 16.1008 15.9401 16.3667 15.7367 16.57L16.6209 17.4533C16.834 17.2408 17.0022 16.9883 17.1175 16.7103C17.2327 16.4323 17.2919 16.1343 17.2917 15.8333H16.0417ZM13.3334 15.2083H10.8334V16.4583H13.3334V15.2083ZM14.2634 16.57C14.1665 16.4734 14.0896 16.3586 14.0373 16.2322C13.9849 16.1057 13.9581 15.9702 13.9584 15.8333H12.7084C12.7084 16.4192 12.9326 17.0067 13.3792 17.4542L14.2634 16.57ZM13.9584 15.8333C13.9584 15.5658 14.0601 15.3 14.2634 15.0967L13.3792 14.2133C13.1662 14.4259 12.998 14.6784 12.8827 14.9564C12.7674 15.2344 12.7082 15.5324 12.7084 15.8333H13.9584ZM4.26341 16.57C4.16647 16.4734 4.08961 16.3586 4.03726 16.2322C3.98491 16.1057 3.95812 15.9702 3.95841 15.8333H2.70841C2.70841 16.4192 2.93258 17.0067 3.37925 17.4542L4.26341 16.57ZM3.95841 15.8333C3.95841 15.5658 4.06008 15.3 4.26341 15.0967L3.38008 14.2133C3.16703 14.4259 2.99803 14.6784 2.88277 14.9564C2.76751 15.2344 2.70826 15.5324 2.70841 15.8333H3.95841ZM10.8334 15.2083H6.66675V16.4583H10.8334V15.2083ZM5.73675 15.0967C5.94008 15.3 6.04175 15.5658 6.04175 15.8333H7.29175C7.29175 15.2475 7.06758 14.66 6.62091 14.2125L5.73675 15.0967ZM6.04175 15.8333C6.04175 16.1008 5.94008 16.3667 5.73675 16.57L6.62008 17.4533C6.83313 17.2408 7.00213 16.9883 7.11739 16.7103C7.23265 16.4323 7.2919 16.1343 7.29175 15.8333H6.04175ZM17.7084 14.1667C17.7084 14.7417 17.2417 15.2083 16.6667 15.2083V16.4583C17.2745 16.4583 17.8574 16.2169 18.2872 15.7871C18.717 15.3573 18.9584 14.7745 18.9584 14.1667H17.7084ZM15.0001 8.125C15.7184 8.125 16.4073 8.41034 16.9152 8.91825C17.4231 9.42616 17.7084 10.115 17.7084 10.8333H18.9584C18.9584 9.78352 18.5414 8.7767 17.799 8.03437C17.0567 7.29204 16.0499 6.875 15.0001 6.875V8.125ZM1.04175 14.1667C1.04175 14.7745 1.28319 15.3573 1.71296 15.7871C2.14273 16.2169 2.72563 16.4583 3.33341 16.4583V15.2083C2.75841 15.2083 2.29175 14.7417 2.29175 14.1667H1.04175Z" fill="#FF7E47"/>
</svg>
