<svg width="62" height="62" viewBox="0 0 62 62" fill="none" xmlns="http://www.w3.org/2000/svg">
<path d="M42 0H20C8.95431 0 0 8.9543 0 20V42C0 53.0457 8.9543 62 20 62H42C53.0457 62 62 53.0457 62 42V20C62 8.95431 53.0457 0 42 0Z" fill="#FFE9D5"/>
<path d="M48.407 29.9988H13V24.9771H48.407V29.9988Z" fill="#FF7E47"/>
<path d="M46.4337 28.9346L45.2642 47.5637H16.1482L14.9731 28.9346H46.4337Z" fill="#FF7E47"/>
<path d="M34.467 26.9227C34.467 27.6671 34.2462 28.3947 33.8327 29.0136C33.4192 29.6325 32.8314 30.1149 32.1437 30.3997C31.456 30.6846 30.6993 30.7591 29.9692 30.6139C29.2392 30.4687 28.5686 30.1102 28.0423 29.5839C27.5159 29.0576 27.1575 28.387 27.0123 27.6569C26.867 26.9269 26.9416 26.1702 27.2264 25.4825C27.5113 24.7948 27.9937 24.207 28.6126 23.7934C29.2315 23.3799 29.9591 23.1592 30.7035 23.1592C31.7012 23.1606 32.6576 23.5576 33.3631 24.2631C34.0685 24.9686 34.4655 25.925 34.467 26.9227Z" fill="#FF7E47"/>
<path d="M25.7482 32.9639V43.6836C25.7496 43.8097 25.7261 43.9348 25.6788 44.0518C25.6316 44.1687 25.5616 44.2752 25.4729 44.3649C25.3842 44.4546 25.2786 44.5258 25.1622 44.5744C25.0458 44.623 24.921 44.648 24.7948 44.648H24.6396C24.5355 44.6473 24.4326 44.626 24.3367 44.5855C24.2408 44.545 24.1539 44.486 24.0808 44.4119C24.0077 44.3378 23.9499 44.25 23.9108 44.1536C23.8716 44.0571 23.8518 43.9539 23.8526 43.8498V32.9639C23.854 32.7556 23.9374 32.5563 24.0847 32.409C24.232 32.2617 24.4313 32.1783 24.6396 32.1768H24.95C25.0543 32.1754 25.1578 32.1946 25.2546 32.2335C25.3514 32.2724 25.4395 32.3302 25.5137 32.4034C25.588 32.4766 25.647 32.5639 25.6872 32.6601C25.7275 32.7564 25.7482 32.8596 25.7482 32.9639Z" fill="#FFEBB1"/>
<path d="M31.6459 32.9642V43.6839C31.6473 43.81 31.6238 43.9352 31.5765 44.0521C31.5293 44.1691 31.4593 44.2755 31.3706 44.3652C31.2819 44.4549 31.1763 44.5261 31.0599 44.5747C30.9435 44.6233 30.8187 44.6483 30.6925 44.6483H30.5373C30.4332 44.6476 30.3303 44.6264 30.2344 44.5858C30.1385 44.5453 30.0516 44.4863 29.9785 44.4122C29.9054 44.3381 29.8476 44.2503 29.8085 44.1539C29.7693 44.0574 29.7495 43.9542 29.7503 43.8501V32.9642C29.7532 32.7569 29.8372 32.5589 29.9843 32.4128C30.1315 32.2667 30.33 32.1841 30.5373 32.1827H30.8477C30.9515 32.1812 31.0546 32.2003 31.1511 32.2389C31.2475 32.2774 31.3353 32.3347 31.4095 32.4073C31.4837 32.48 31.5428 32.5666 31.5833 32.6622C31.6239 32.7577 31.6452 32.8604 31.6459 32.9642Z" fill="#FFEBB1"/>
<path d="M37.5431 32.9639V43.6836C37.5446 43.8097 37.521 43.9348 37.4737 44.0518C37.4265 44.1687 37.3565 44.2752 37.2678 44.3649C37.1791 44.4546 37.0735 44.5258 36.9571 44.5744C36.8408 44.623 36.7159 44.648 36.5897 44.648H36.4345C36.3305 44.6473 36.2275 44.626 36.1316 44.5855C36.0358 44.545 35.9488 44.486 35.8757 44.4119C35.8026 44.3378 35.7448 44.25 35.7057 44.1536C35.6665 44.0571 35.6468 43.9539 35.6475 43.8498V32.9639C35.6489 32.7556 35.7323 32.5563 35.8796 32.409C36.0269 32.2617 36.2262 32.1783 36.4345 32.1768H36.7449C36.8492 32.1754 36.9528 32.1946 37.0495 32.2335C37.1463 32.2724 37.2344 32.3302 37.3087 32.4034C37.3829 32.4766 37.4419 32.5639 37.4821 32.6601C37.5224 32.7564 37.5431 32.8596 37.5431 32.9639Z" fill="#FFEBB1"/>
<path d="M41.0297 26.6176H39.3668V16.6628H22.0403V26.6176H20.3774V15H41.0297V26.6176Z" fill="#FF7E47"/>
</svg>
